<svg width="16" height="16" viewBox="0 0 16 16" fill="none" xmlns="http://www.w3.org/2000/svg">
<path d="M13.3334 6.66665C13.3334 10.6666 8.00008 14.6666 8.00008 14.6666C8.00008 14.6666 2.66675 10.6666 2.66675 6.66665C2.66675 5.25216 3.22865 3.8956 4.22885 2.89541C5.22904 1.89522 6.58559 1.33331 8.00008 1.33331C9.41457 1.33331 10.7711 1.89522 11.7713 2.89541C12.7715 3.8956 13.3334 5.25216 13.3334 6.66665Z" stroke="white" stroke-width="2" stroke-linecap="round" stroke-linejoin="round"/>
<path d="M8 8.66669C9.10457 8.66669 10 7.77126 10 6.66669C10 5.56212 9.10457 4.66669 8 4.66669C6.89543 4.66669 6 5.56212 6 6.66669C6 7.77126 6.89543 8.66669 8 8.66669Z" stroke="white" stroke-width="2" stroke-linecap="round" stroke-linejoin="round"/>
</svg>
