<svg width="16" height="16" viewBox="0 0 16 16" fill="none" xmlns="http://www.w3.org/2000/svg">
<path d="M13.9999 4V2.66667C13.9999 2.26667 13.7333 2 13.3333 2H11.9999C11.8231 2 11.6535 2.07024 11.5285 2.19526C11.4035 2.32029 11.3333 2.48986 11.3333 2.66667V4C11.3333 4.4 11.5999 4.66667 11.9999 4.66667H13.3333C13.7333 4.66667 13.9999 4.4 13.9999 4Z" stroke="white" stroke-width="2" stroke-linecap="round" stroke-linejoin="round"/>
<path d="M4.66667 13.3333V12C4.66667 11.6 4.4 11.3333 4 11.3333H2.66667C2.48986 11.3333 2.32029 11.4036 2.19526 11.5286C2.07024 11.6536 2 11.8232 2 12V13.3333C2 13.7333 2.26667 14 2.66667 14H4C4.4 14 4.66667 13.7333 4.66667 13.3333Z" stroke="white" stroke-width="2" stroke-linecap="round" stroke-linejoin="round"/>
<path d="M3.33325 11.3333C3.33325 9.21158 4.17611 7.17675 5.6764 5.67646C7.17669 4.17617 9.21152 3.33331 11.3333 3.33331" stroke="white" stroke-width="2" stroke-linecap="round" stroke-linejoin="round"/>
</svg>
